<svg version="1.1" xmlns="http://www.w3.org/2000/svg" xmlns:xlink="http://www.w3.org/1999/xlink" x="0px" y="0px"
	 viewBox="0 0 15 15" style="enable-background:new 0 0 15 15;" xml:space="preserve">
	<g>
		<g>
			<path d="M13.2,0.2l-13,13c-0.3,0.3-0.3,0.8,0,1.1l0.3,0.3c0.3,0.3,0.8,0.3,1.1,0l13-13
				c0.3-0.3,0.3-0.8,0-1.1l-0.3-0.3C14.1-0.1,13.6-0.1,13.2,0.2z"/>
			<path d="M1.6,0.2l13,13c0.3,0.3,0.3,0.8,0,1.1l-0.3,0.3c-0.3,0.3-0.8,0.3-1.1,0l-13-13
				c-0.3-0.3-0.3-0.8,0-1.1l0.3-0.3C0.8-0.1,1.3-0.1,1.6,0.2z"/>
		</g>
	</g>
</svg>
