<svg version="1.1" xmlns="http://www.w3.org/2000/svg" xmlns:xlink="http://www.w3.org/1999/xlink" x="0px" y="0px"
	 viewBox="0 0 18 16" style="enable-background:new 0 0 18 16;" xml:space="preserve">
	<path d="M15,7h-1.5V6.5h-2v3h2V9H15v1c0,0.6-0.4,1-1,1h-3c-0.6,0-1-0.4-1-1V6c0-0.6,0.4-1,1-1h3c0.6,0,1,0.4,1,1 M8,7
		H6.5V6.5h-2v3h2V9H8v1c0,0.6-0.4,1-1,1H4c-0.6,0-1-0.4-1-1V6c0-0.6,0.4-1,1-1h3c0.6,0,1,0.4,1,1 M16,0H2C0.9,0,0,0.9,0,2v12
		c0,1.1,0.9,2,2,2h14c1.1,0,2-0.9,2-2V2C18,0.9,17.1,0,16,0z"/>
</svg>
