<?xml version="1.0" encoding="utf-8"?>
<!-- Generator: Adobe Illustrator 19.1.0, SVG Export Plug-In . SVG Version: 6.00 Build 0)  -->
<svg version="1.1" id="Layer_1" xmlns="http://www.w3.org/2000/svg" xmlns:xlink="http://www.w3.org/1999/xlink" x="0px" y="0px"
	 viewBox="-294 388 21.9 17.9" style="enable-background:new -294 388 21.9 17.9;" xml:space="preserve">
<path d="M-284.3,400.7c0.4,0.4,0.9,0.5,1.3,0.5s0.9-0.2,1.3-0.5l3.1-3.1c0.3-0.3,0.3-0.7,0-0.9c-0.3-0.3-0.7-0.3-0.9,0l-2.8,2.8
	v-10.8c0-0.4-0.3-0.7-0.7-0.7s-0.7,0.3-0.7,0.7v10.8l-2.8-2.8c-0.3-0.3-0.7-0.3-0.9,0c-0.3,0.3-0.3,0.7,0,0.9L-284.3,400.7z
	 M-272.1,398.6v4.8c0,1.3-1.1,2.4-2.5,2.4h-17c-1.3,0-2.5-1.1-2.5-2.4v-4.8c0-0.4,0.3-0.7,0.7-0.7c0.4,0,0.7,0.3,0.7,0.7v4.8
	c0,0.6,0.5,1.1,1.1,1.1h17c0.6,0,1.1-0.5,1.1-1.1v-4.8c0-0.4,0.3-0.7,0.7-0.7C-272.4,398-272.1,398.2-272.1,398.6L-272.1,398.6z"/>
</svg>
