<svg version="1.1" xmlns="http://www.w3.org/2000/svg" xmlns:xlink="http://www.w3.org/1999/xlink" x="0px" y="0px"
	 viewBox="0 0 85 27" style="enable-background:new 0 0 85 27;" xml:space="preserve">
	<g>
		<path d="M10.6,9.5v2.9h6.8c-0.2,1.6-0.7,2.8-1.6,3.6c-1,1-2.6,2.1-5.3,2.1c-4.2,0-7.5-3.4-7.5-7.6
			s3.3-7.6,7.5-7.6c2.3,0,3.9,0.9,5.2,2l2-2c-1.7-1.7-4-2.9-7.2-2.9C4.8,0,0,4.7,0,10.5s4.8,10.5,10.6,10.5c3.1,0,5.5-1,7.3-2.9
			c1.9-1.9,2.5-4.5,2.5-6.7c0-0.7,0-1.3-0.2-1.8H10.6z"/>
		<path d="M28.9,7.2c-3.7,0-6.8,2.8-6.8,6.8c0,3.9,3,6.8,6.8,6.8s6.8-2.9,6.8-6.8
			C35.7,10,32.7,7.2,28.9,7.2z M28.9,18c-2,0-3.8-1.7-3.8-4.1c0-2.4,1.8-4.1,3.8-4.1s3.8,1.7,3.8,4.1C32.8,16.4,31,18,28.9,18z"/>
		<path d="M62.2,8.7h-0.1c-0.7-0.8-1.9-1.5-3.6-1.5c-3.4,0-6.3,2.9-6.3,6.8c0,3.8,2.9,6.8,6.3,6.8
			c1.6,0,2.9-0.7,3.6-1.5h0.1v0.9c0,2.6-1.4,4-3.6,4c-1.8,0-2.9-1.3-3.4-2.4l-2.6,1.1c0.7,1.8,2.7,4,6,4c3.5,0,6.4-2,6.4-7V7.5h-2.8
			V8.7z M58.8,18c-2,0-3.6-1.7-3.6-4.1c0-2.4,1.6-4.1,3.6-4.1c2,0,3.6,1.7,3.6,4.1C62.4,16.3,60.8,18,58.8,18z"/>
		<path d="M44.1,7.2c-3.7,0-6.8,2.8-6.8,6.8c0,3.9,3,6.8,6.8,6.8s6.8-2.9,6.8-6.8
			C50.8,10,47.8,7.2,44.1,7.2z M44.1,18c-2,0-3.8-1.7-3.8-4.1c0-2.4,1.8-4.1,3.8-4.1s3.8,1.7,3.8,4.1C47.9,16.4,46.1,18,44.1,18z"/>
		<path d="M67.3,0.3h2.9v20.4h-2.9V0.3z"/>
		<path d="M79.2,18c-1.5,0-2.6-0.7-3.3-2l9-3.7l-0.3-0.8c-0.6-1.5-2.3-4.3-5.8-4.3
			c-3.5,0-6.4,2.7-6.4,6.8c0,3.8,2.9,6.8,6.7,6.8c3.1,0,4.9-1.9,5.6-3l-2.3-1.5C81.8,17.3,80.8,18,79.2,18L79.2,18z M79,9.7
			c1.2,0,2.2,0.6,2.6,1.5l-6.1,2.5C75.5,10.9,77.5,9.7,79,9.7z"/>
	</g>
</svg>
