<svg version="1.1" id="Menu" xmlns="http://www.w3.org/2000/svg" xmlns:xlink="http://www.w3.org/1999/xlink" x="0px" y="0px" viewBox="791.2 -92.9 20 15.7" style="enable-background:new 791.2 -92.9 20 15.7;" xml:space="preserve">
<g>
	<g>
		<circle cx="801.2" cy="-84" r="3.1"/>
		<path  d="M810-90.8h-17.6c-0.7,0-1.2,0.5-1.2,1.2v11.2c0,0.7,0.5,1.2,1.2,1.2H810c0.7,0,1.2-0.5,1.2-1.2
			v-11.2C811.2-90.3,810.7-90.8,810-90.8z M801.2-80c-2.2,0-4.1-1.8-4.1-4.1c0-2.2,1.8-4.1,4.1-4.1s4.1,1.8,4.1,4.1
			C805.3-81.8,803.4-80,801.2-80z"/>
	</g>
	<path d="M805.1-90.9c0,0.7-0.8,1.2-1.8,1.2H799c-1,0-1.8-0.5-1.8-1.2v-0.9c0-0.7,0.8-1.2,1.8-1.2h4.3
		c1,0,1.8,0.5,1.8,1.2V-90.9z"/>
</g>
</svg>
