<svg viewBox="0 0 48 35" version="1.1" xmlns="http://www.w3.org/2000/svg" xmlns:xlink="http://www.w3.org/1999/xlink">
    <defs></defs>
    <g stroke="none" stroke-width="1" fill-rule="evenodd">
        <g>
            <path d="M47.5,8.2 C47.5,8.2 47,4.9 45.6,3.5 C43.8,1.6 41.7,1.6 40.8,1.5 C34.1,0.9 24,1 24,1 C24,1 14,0.9 7.3,1.4 C6.4,1.5 4.3,1.5 2.5,3.4 C1,4.9 0.6,8.2 0.6,8.2 C0.6,8.2 0.1,12.1 0,16 L0,20 C0.1,23.9 0.6,27.7 0.6,27.7 C0.6,27.7 1,31 2.5,32.5 C4.3,34.4 6.7,34.3 7.8,34.5 C11.5,34.9 23.6,35 24,35 C24,35 34.1,35 40.8,34.5 C41.7,34.4 43.8,34.4 45.6,32.5 C47,31.1 47.5,27.8 47.5,27.8 C47.5,27.8 48,23.9 48,20 L48,16 C48,12.1 47.5,8.2 47.5,8.2 L47.5,8.2 Z M19.1,25 L19.1,11 L32,18.3 L19.1,25 L19.1,25 Z"></path>
        </g>
    </g>
</svg>
