<svg width="34px" height="40px" viewBox="0 0 34 40" version="1.1" xmlns="http://www.w3.org/2000/svg" xmlns:xlink="http://www.w3.org/1999/xlink">
    <defs>
        <filter x="-51.4%" y="-51.4%" width="205.7%" height="202.9%" filterUnits="objectBoundingBox" id="filter-marker">
            <feOffset dx="0" dy="0" in="SourceAlpha" result="shadowOffsetOuter1"></feOffset>
            <feGaussianBlur stdDeviation="6" in="shadowOffsetOuter1" result="shadowBlurOuter1"></feGaussianBlur>
            <feColorMatrix values="0 0 0 0 0   0 0 0 0 0   0 0 0 0 0  0 0 0 0.231657609 0" type="matrix" in="shadowBlurOuter1" result="shadowMatrixOuter1"></feColorMatrix>
            <feMerge>
                <feMergeNode in="shadowMatrixOuter1"></feMergeNode>
                <feMergeNode in="SourceGraphic"></feMergeNode>
            </feMerge>
        </filter>
    </defs>
    <g stroke="none" stroke-width="1" fill="none" fill-rule="evenodd">
        <g fill-rule="nonzero" fill="#959CA5">
            <g filter="url(#filter-marker)">
                <g>
                    <path d="M6,0 C8.4825,0 10.5,1.995 10.5,4.4625 C10.5,7.8075 6,12.75 6,12.75 C6,12.75 1.5,7.8075 1.5,4.4625 C1.5,1.995 3.5175,0 6,0 L6,0 Z M6,3 C5.17157288,3 4.5,3.67157288 4.5,4.5 C4.5,5.32842712 5.17157288,6 6,6 C6.82842712,6 7.5,5.32842712 7.5,4.5 C7.5,3.67157288 6.82842712,3 6,3 L6,3 Z M12,12.75 C12,14.4075 9.315,15.75 6,15.75 C2.685,15.75 0,14.4075 0,12.75 C0,11.7825 0.915,10.92 2.3325,10.3725 L2.8125,11.055 C2.0025,11.3925 1.5,11.8575 1.5,12.375 C1.5,13.41 3.5175,14.25 6,14.25 C8.4825,14.25 10.5,13.41 10.5,12.375 C10.5,11.8575 9.9975,11.3925 9.1875,11.055 L9.6675,10.3725 C11.085,10.92 12,11.7825 12,12.75 Z"></path>
                </g>
            </g>
        </g>
    </g>
</svg>
