<svg version="1.1" xmlns="http://www.w3.org/2000/svg" xmlns:xlink="http://www.w3.org/1999/xlink" x="0px" y="0px"
	 viewBox="0 0 50 33" style="enable-background:new 0 0 50 33;" xml:space="preserve">
<path style="opacity:0.4857;fill:#696969;enable-background:new;" d="M43.3,14c-7.5-1.9-18.5-0.4-24.6,3.3
	c-8.3,5-6.9,15.7-6.9,15.7s25.8-4,34.1-8.9C52,20.4,50.8,15.9,43.3,14z M37.1,21.9c-1,0.6-2.6,1.1-4.2,1.3c-1.6,0.2-3.3,0.2-4.6-0.2
	c-2.7-0.7-3.1-2.3-0.9-3.6c1-0.6,2.6-1.1,4.2-1.3c1.6-0.2,3.3-0.2,4.6,0.2C38.9,18.9,39.3,20.6,37.1,21.9z"/>
<path style="fill:#34A753;" d="M4.6,23.1l16.2-2.7c1.1-1.9,1.9-3.9,2.5-5.8L1.9,18.2C2.6,19.8,3.6,21.5,4.6,23.1"/>
<path style="fill:#7313E2;" d="M11.9,33c0,0,2.4-2.8,5.1-6.6L7.9,28C10.1,31,11.9,33,11.9,33"/>
<path style="fill:#4284F3;" d="M7.9,28l9.1-1.5c1.3-1.8,2.6-3.9,3.8-6L4.6,23.1C5.7,24.9,6.8,26.5,7.9,28"/>
<path style="fill:#FF8C00;" d="M7.6,11.2c0-2.2,1.9-4,4.2-4c2.1,0,3.8,1.4,4.2,3.2l7.5-1.3c-0.4-1.9-1.2-3.6-2.5-5L0.6,7.6
	C0.2,8.7,0,9.9,0,11.2c0,0.6,0.1,1.2,0.2,1.9l7.5-1.3C7.7,11.6,7.6,11.4,7.6,11.2"/>
<g transform="translate(0.000000, 9.240762)">
	<defs>
		<filter id="Adobe_OpacityMaskFilter_ShadowPin" filterUnits="userSpaceOnUse" x="0.2" y="-0.1" width="23.6" height="9">
			<feColorMatrix  type="matrix" values="1 0 0 0 0  0 1 0 0 0  0 0 1 0 0  0 0 0 1 0"/>
		</filter>
	</defs>
	<mask maskUnits="userSpaceOnUse" x="0.2" y="-0.1" width="23.6" height="9" id="mask-pin-shadow-2">
		<g style="filter:url(#Adobe_OpacityMaskFilter_ShadowPin);">
			<polygon style="fill:#FFFFFF;" points="23.8,-0.1 23.8,8.9 0.2,8.9 0.2,-0.1 			"/>
		</g>
	</mask>
	<path style="mask:url(#mask-pin-shadow-2);fill:#F9BA05;" d="M23.6-0.1L16,1.2c0.1,0.3,0.1,0.5,0.1,0.8c0,2.2-1.9,4-4.2,4C9.8,6,8,4.5,7.7,2.6
		L0.2,3.8c0.3,1.6,0.9,3.4,1.7,5.1l21.4-3.6C23.6,4.2,23.8,3,23.8,2C23.8,1.3,23.7,0.6,23.6-0.1"/>
</g>
<g transform="translate(0.500000, 0.055816)">
	<defs>
		<filter id="Adobe_OpacityMaskFilter_ShadowPin_1_" filterUnits="userSpaceOnUse" x="0.1" y="-0.1" width="20.5" height="7.6">
			<feColorMatrix  type="matrix" values="1 0 0 0 0  0 1 0 0 0  0 0 1 0 0  0 0 0 1 0"/>
		</filter>
	</defs>
	<mask maskUnits="userSpaceOnUse" x="0.1" y="-0.1" width="20.5" height="7.6" id="mask-pin-shadow-4">
		<g style="filter:url(#Adobe_OpacityMaskFilter_ShadowPin_1_);">
			<polygon style="fill:#FFFFFF;" points="0.1,-0.1 20.6,-0.1 20.6,7.5 0.1,7.5 			"/>
		</g>
	</mask>
	<path style="mask:url(#mask-pin-shadow-4);fill:#E94335;" d="M11.4-0.1c-5.2,0-9.6,3.2-11.2,7.6l20.5-3.4C18.4,1.6,15.1-0.1,11.4-0.1"/>
</g>
</svg>
