<svg version="1.1" id="Layer_1" xmlns="http://www.w3.org/2000/svg" xmlns:xlink="http://www.w3.org/1999/xlink" x="0px" y="0px"
	 viewBox="0 0 37.9 38" style="enable-background:new 0 0 37.9 38;" xml:space="preserve">
<style type="text/css">
	.stpride0{fill:#FFFFFF;}
	.stpride1{fill:#777777;}
	.stpride2{fill:#7313E2;}
	.stpride3{fill:#4284F3;}
	.stpride4{fill:#FF8C00;}
	.stpride5{fill:#F9BA05;}
	.stpride6{fill:#34A753;}
	.stpride7{fill:#E94335;}
</style>
<path id="Fill-1" class="stpride0" d="M19,1.8C9.5,1.8,1.8,9.5,1.8,19S9.5,36.2,19,36.2c9.5,0,17.2-7.7,17.2-17.2
	C36.1,9.5,28.4,1.8,19,1.8"/>
<g id="Clip-6">
</g>
<g>
	<polygon id="Fill-29" class="stpride1" points="15.6,26.1 15.6,12 25,19 	"/>
	<g>
		<path class="stpride2" d="M8.3,3.4L8.3,3.4C3.1,6.8,0,12.7,0,19v0.5h3.5V19c0-5.1,2.5-9.8,6.7-12.7L8.3,3.4z"/>
	</g>
	<path class="stpride3" d="M10.5,31.9c-4.3-2.7-6.8-7.4-7-12.4H0c0.1,6.3,3.3,12,8.6,15.4L9,35.2l1.9-3L10.5,31.9z"/>
	<g>
		<path class="stpride4" d="M34.4,18.5h3.5c-0.1-6.2-3.3-11.9-8.6-15.4l-0.4-0.3L27,5.7L27.4,6C31.7,8.8,34.3,13.4,34.4,18.5
			C34.4,18.6,34.4,18.5,34.4,18.5z"/>
	</g>
	<path class="stpride5" d="M34.4,18.5V19c0,5.1-2.5,9.8-6.7,12.7l1.9,2.9c0,0-0.1,0.1,0,0c5.2-3.5,8.3-9.3,8.3-15.6v-0.5H34.4z"/>
	<g>
		<path class="stpride6" d="M27.7,31.7L27.3,32c-2.5,1.6-5.4,2.5-8.4,2.5c-2.8,0-5.6-0.8-8-2.3L9,35.2c3,1.8,6.3,2.8,9.8,2.8
			c3.7,0,7.3-1.1,10.3-3.1l0.4-0.3L27.7,31.7z"/>
	</g>
	<g>
		<path class="stpride7" d="M27,5.7l1.9-2.9C25.9,1,22.5,0,19,0c-3.7,0-7.2,1.1-10.3,3.1L8.3,3.4l1.9,2.9L10.6,6C13.1,4.4,16,3.5,19,3.5
			C21.8,3.5,24.6,4.3,27,5.7C27.1,5.8,27,5.7,27,5.7z"/>
		<circle class="stpride7" cx="29.3" cy="3.1" r="0"/>
	</g>
</g>
</svg>
