<?xml version="1.0" encoding="utf-8"?>
<!-- Generator: Adobe Illustrator 19.1.0, SVG Export Plug-In . SVG Version: 6.00 Build 0)  -->
<svg version="1.1" id="Layer_1" xmlns="http://www.w3.org/2000/svg" xmlns:xlink="http://www.w3.org/1999/xlink" x="0px" y="0px"
	 viewBox="191 419 18 18" style="enable-background:new 191 419 18 18;" xml:space="preserve">
<path id="search---material" d="M198.1,431.1c0.9,0,1.7-0.2,2.4-0.7c0.7-0.4,1.3-1.1,1.8-1.8c0.4-0.8,0.6-1.6,0.6-2.5
	s-0.2-1.7-0.6-2.5c-0.4-0.8-1-1.4-1.8-1.8c-0.7-0.4-1.6-0.7-2.4-0.7c-0.9,0-1.7,0.2-2.4,0.7c-0.7,0.4-1.3,1-1.8,1.8
	c-0.4,0.8-0.7,1.6-0.7,2.5s0.2,1.7,0.7,2.5c0.4,0.8,1,1.4,1.8,1.8C196.4,430.9,197.2,431.1,198.1,431.1z M204.6,431.1l4.4,4.2
	l-1.6,1.7l-4.4-4.3v-0.9l-0.3-0.3c-0.6,0.5-1.3,1-2.1,1.3c-0.8,0.3-1.6,0.4-2.5,0.4c-1.3,0-2.5-0.3-3.5-0.9
	c-1.1-0.6-1.9-1.5-2.6-2.6c-0.6-1.1-1-2.3-1-3.6c0-1.3,0.3-2.5,0.9-3.6c0.6-1.1,1.5-2,2.6-2.6c1.1-0.6,2.3-0.9,3.5-0.9
	s2.5,0.3,3.6,1c1.1,0.6,1.9,1.5,2.5,2.6s0.9,2.3,0.9,3.6c0,0.9-0.1,1.7-0.4,2.5c-0.3,0.8-0.7,1.5-1.2,2.1l0.3,0.3H204.6z"/>
</svg>
