<?xml version="1.0" encoding="utf-8"?>
<!-- Generator: Adobe Illustrator 21.0.0, SVG Export Plug-In . SVG Version: 6.00 Build 0)  -->
<!DOCTYPE svg PUBLIC "-//W3C//DTD SVG 1.1//EN" "http://www.w3.org/Graphics/SVG/1.1/DTD/svg11.dtd">
<svg version="1.1" id="Layer_1" xmlns="http://www.w3.org/2000/svg" xmlns:xlink="http://www.w3.org/1999/xlink" x="0px" y="0px"
	 viewBox="0 0 56 48" style="enable-background:new 0 0 56 48;" xml:space="preserve">
<style type="text/css">
	.st0{opacity:0.4857;fill:#696969;enable-background:new    ;}
	.st1{fill:#34A753;}
	.st2{fill:#7313E2;}
	.st3{fill:#4284F3;}
	.st4{fill:#FF8C00;}
	.st5{filter:url(#Adobe_OpacityMaskFilter);}
	.st6{fill:#FFFFFF;}
	.st7{mask:url(#mask-2);fill:#F9BA05;}
	.st8{filter:url(#Adobe_OpacityMaskFilter_1_);}
	.st9{mask:url(#mask-4);fill:#E94335;}
</style>
<title>pin</title>
<desc>Created with Sketch.</desc>
<path id="Shape" class="st0" d="M33.4,34.4c1-0.6,2.6-1.1,4.2-1.3s3.3-0.2,4.6,0.2c2.7,0.7,3.1,2.3,0.9,3.6c-1,0.6-2.6,1.1-4.2,1.3
	c-1.6,0.2-3.3,0.2-4.6-0.2C31.7,37.3,31.3,35.7,33.4,34.4z M49.3,28.9c-7.5-1.9-18.5-0.4-24.6,3.3c-8.3,5-6.9,15.7-6.9,15.7
	s25.8-4,34.1-8.9C58,35.3,56.8,30.8,49.3,28.9z"/>
<g id="Group" transform="translate(4.000000, 0.000000)">
	<g>
		<path id="Fill-1" class="st1" d="M2.7,33.7l23.6-3.9c1.5-2.8,2.8-5.7,3.6-8.4l-31.2,5.1C-0.2,28.9,1.2,31.4,2.7,33.7"/>
		<path id="Fill-3" class="st2" d="M13.3,47.9c0,0,3.6-4,7.5-9.5L7.5,40.7C10.7,45,13.3,47.9,13.3,47.9"/>
		<path id="Fill-5" class="st3" d="M7.5,40.7l13.3-2.2c1.9-2.6,3.8-5.6,5.5-8.7L2.7,33.7C4.2,36.2,5.9,38.6,7.5,40.7"/>
		<path id="Fill-7" class="st4" d="M7.1,16.5c0-3.2,2.8-5.8,6.2-5.8c3,0,5.5,2,6.1,4.6l11-1.8c-0.5-2.7-1.8-5.2-3.6-7.2l-29.9,4.9
			C-3.7,12.9-4,14.6-4,16.5c0,0.9,0.1,1.8,0.3,2.7l11-1.8C7.2,17.1,7.1,16.8,7.1,16.5"/>
		<g id="Group-11" transform="translate(0.000000, 13.317569)">
			<g id="Clip-10">
			</g>
			<defs>
				<filter id="Adobe_OpacityMaskFilter" filterUnits="userSpaceOnUse" x="-3.7" y="0.2" width="34.4" height="13">
					<feColorMatrix  type="matrix" values="1 0 0 0 0  0 1 0 0 0  0 0 1 0 0  0 0 0 1 0"/>
				</filter>
			</defs>
			<mask maskUnits="userSpaceOnUse" x="-3.7" y="0.2" width="34.4" height="13" id="mask-2">
				<g class="st5">
					<polygon id="path-1" class="st6" points="30.7,0.2 30.7,13.2 -3.7,13.2 -3.7,0.2 					"/>
				</g>
			</mask>
			<path id="Fill-9" class="st7" d="M30.4,0.2L19.4,2c0.1,0.4,0.1,0.8,0.1,1.1c0,3.2-2.8,5.8-6.2,5.8c-3.1,0-5.7-2.1-6.1-4.9
				l-11,1.8c0.4,2.3,1.3,4.9,2.5,7.4l31.2-5.1c0.5-1.7,0.8-3.4,0.8-4.9C30.7,2.1,30.6,1.2,30.4,0.2"/>
		</g>
		<g id="Group-14" transform="translate(0.729167, 0.080441)">
			<g id="Clip-13">
			</g>
			<defs>
				<filter id="Adobe_OpacityMaskFilter_1_" filterUnits="userSpaceOnUse" x="-3.8" y="0.3" width="29.9" height="10.9">
					<feColorMatrix  type="matrix" values="1 0 0 0 0  0 1 0 0 0  0 0 1 0 0  0 0 0 1 0"/>
				</filter>
			</defs>
			<mask maskUnits="userSpaceOnUse" x="-3.8" y="0.3" width="29.9" height="10.9" id="mask-4">
				<g class="st8">
					<polygon id="path-3" class="st6" points="-3.8,0.3 26.1,0.3 26.1,11.2 -3.8,11.2 					"/>
				</g>
			</mask>
			<path id="Fill-12" class="st9" d="M12.6,0.3C5,0.3-1.5,4.8-3.8,11.2l29.9-4.9C22.9,2.6,18,0.3,12.6,0.3"/>
		</g>
	</g>
</g>
</svg>
