<svg version="1.1" xmlns="http://www.w3.org/2000/svg" xmlns:xlink="http://www.w3.org/1999/xlink" x="0px" y="0px"
	 viewBox="0 0 14 16" style="enable-background:new 0 0 14 16;" xml:space="preserve">
<path d="M11.4,11c-0.7,0-1.2,0.2-1.7,0.6L4.8,9C4.9,8.7,5,8.4,5,8S4.9,7.3,4.8,7l5.1-2.7
	c0.4,0.3,0.9,0.5,1.5,0.5c1.4,0,2.5-1.1,2.5-2.4S12.8,0,11.4,0S8.9,1.1,8.9,2.4c0,0.5,0.1,0.9,0.4,1.3l-5,2.6
	C3.8,5.9,3.2,5.6,2.5,5.6C1.1,5.6,0,6.7,0,8s1.1,2.4,2.5,2.4c0.7,0,1.3-0.3,1.8-0.7l4.9,2.6C9,12.6,8.9,13,8.9,13.4
	c0,1.3,1.1,2.4,2.5,2.4s2.5-1.1,2.5-2.4C13.9,12.1,12.8,11,11.4,11"/>
</svg>
