<svg version="1.1" id="Layer_1" xmlns="http://www.w3.org/2000/svg" xmlns:xlink="http://www.w3.org/1999/xlink" x="0px" y="0px"
	 viewBox="0 0 1028.1 334" style="enable-background:new 0 0 1028.1 334;" xml:space="preserve">
<style type="text/css">
	.st0{fill:#EA4335;}
	.st1{fill:#FF8C00;}
	.st2{fill:#FABB05;}
	.st3{fill:#34A853;}
	.st4{fill:#4285F4;}
	.st5{fill:#820C8E;}
	.st6{fill:#959CA5;}
</style>
<path class="st6" d="M115,229.3v-21.4l-24.9,4.5v-43.1l-21.8,4v43.1l-21.7,3.9v-43.1l-21.8,4v43.1L0,228.6v21.4l24.7-4.5v25.3
	L0,275.4v21.4l24.7-4.5V334l21.8-4v-41.6l21.7-3.9v41.6l21.8-4v-41.6L115,276v-21.4l-24.9,4.5v-25.3L115,229.3z M46.5,267v-25.3
	l21.7-3.9v25.3L46.5,267z"/>
<path class="st0" d="M196.5,307.4c-7.8,1.4-15.3,1.7-22.4,0.8c-7.1-0.9-13.7-3-19.6-6.2c-5.9-3.3-11.1-7.6-15.5-13.1
	c-4.4-5.5-7.9-12.1-10.4-20l32.3-18.4c2.4,8.6,6.5,15.3,12.5,20.2c5.9,4.9,13.7,6.4,23.4,4.7c3.6-0.6,7-1.7,10.3-3.2
	c3.3-1.5,6.3-3.4,8.9-5.6c2.6-2.2,4.7-4.8,6.2-7.8c1.5-2.9,2.3-6.2,2.3-9.7c0-3.3-0.6-6.2-1.8-8.7c-1.2-2.5-3.2-4.6-6-6.4
	c-2.8-1.8-6.4-3.4-10.9-4.8c-4.5-1.4-10-2.6-16.7-3.7l-11.2-2c-4.9-0.8-9.9-2.1-14.9-4.1c-5-1.9-9.5-4.5-13.6-7.8s-7.4-7.4-10-12.3
	c-2.6-4.9-3.9-10.8-3.9-17.7c0-7,1.4-13.8,4.2-20.4c2.8-6.6,6.8-12.7,12-18.2c5.2-5.5,11.4-10.2,18.6-14.1c7.2-3.9,15.2-6.6,24-8.2
	c9.2-1.7,17.1-1.9,23.8-0.7c6.7,1.2,12.4,3.3,17,6.2c4.7,2.9,8.4,6.4,11.3,10.3c2.9,4,5,7.9,6.4,11.6l-30.3,18
	c-1.7-4.7-4.8-8.6-9.3-11.8c-4.5-3.2-10.6-4.1-18.4-2.7c-7.5,1.4-13.7,4.2-18.6,8.5c-4.9,4.3-7.4,9.2-7.4,14.7
	c0,5.3,2.4,9.5,7.1,12.4c4.7,2.9,12.3,5.2,22.6,6.8l11.4,1.7c7.3,1.2,13.9,2.9,20,5c6,2.2,11.2,5.1,15.5,8.8s7.6,8.3,9.9,13.6
	c2.3,5.3,3.4,11.8,3.4,19.3c0,9.4-1.9,17.8-5.7,25.2c-3.8,7.5-8.7,13.9-14.6,19.3c-5.9,5.4-12.6,9.9-20.1,13.4
	C210.9,303.7,203.6,306.1,196.5,307.4z"/>
<path class="st1" d="M269.5,110.9l33.3-6v50.3l-2,22.7l2-0.4c3.6-6.5,8.7-12.2,15.4-17.2c6.7-5,14.2-8.2,22.5-9.7
	c16.1-2.9,28-0.4,35.7,7.6c7.7,8,11.6,20,11.6,36.2v74.4l-33.3,6v-70.4c0-8.5-2-14.6-6.1-18.3c-4.1-3.7-9.8-4.9-17-3.6
	c-4.6,0.8-8.6,2.5-12.2,5.1c-3.6,2.6-6.6,5.7-9,9.5c-2.5,3.8-4.3,8-5.6,12.7c-1.3,4.7-1.9,9.5-1.9,14.5v59.9l-33.3,6V110.9z"/>
<path class="st2" d="M465.3,128c9.7-1.7,18.5-1.7,26.6,0.1c8.1,1.8,15,5,20.9,9.7c5.9,4.7,10.4,10.8,13.7,18.2
	c3.3,7.4,5,15.9,5,25.4c0,9.5-1.7,18.6-5,27.2s-7.9,16.3-13.7,23.1c-5.9,6.8-12.8,12.6-20.9,17.3c-8.1,4.7-16.9,7.9-26.6,9.7
	c-9.7,1.7-18.5,1.7-26.6-0.1c-8.1-1.8-15-5-20.9-9.7c-5.9-4.7-10.4-10.8-13.7-18.2c-3.3-7.4-5-15.9-5-25.4c0-9.5,1.7-18.6,5-27.2
	c3.3-8.6,7.9-16.3,13.7-23.1c5.9-6.8,12.8-12.6,20.9-17.3C446.8,133,455.6,129.8,465.3,128z M465.3,228.5c4.2-0.8,8.3-2.3,12.3-4.6
	c4-2.3,7.5-5.2,10.6-8.8c3.1-3.6,5.5-7.7,7.2-12.3c1.8-4.7,2.7-9.8,2.7-15.3c0-5.5-0.9-10.3-2.7-14.3c-1.8-4-4.2-7.3-7.2-9.7
	c-3.1-2.5-6.6-4.1-10.6-5c-4-0.9-8.1-0.9-12.3-0.1c-4.4,0.8-8.6,2.3-12.5,4.6c-3.9,2.3-7.4,5.2-10.4,8.8c-3.1,3.6-5.5,7.7-7.3,12.3
	c-1.8,4.7-2.7,9.8-2.7,15.3c0,5.5,0.9,10.3,2.7,14.3c1.8,4,4.2,7.3,7.3,9.7c3.1,2.5,6.5,4.1,10.4,5
	C456.7,229.2,460.9,229.3,465.3,228.5z"/>
<path class="st3" d="M526,121.1l37.4-6.8l20.6,73.2l1.8-0.3l24.7-81.4l34.3-6.2l24.9,72.4l1.8-0.3L691.9,91l36.9-6.7l-39.9,130
	l-35.9,6.5L628,147.9l-1.8,0.3l-24.9,81.9l-35.4,6.4L526,121.1z"/>
<path class="st4" d="M811.1,196.2c-10.7,1.9-20.4,2-29.1,0.1c-8.7-1.8-16.2-5.5-22.3-10.9s-10.9-12.4-14.2-21.1
	c-3.4-8.7-5.1-18.9-5.1-30.8V25.6l34.3-6.2v109.9c0,6,0.8,11.4,2.3,16.1s3.8,8.7,6.9,11.8c3.1,3.1,6.9,5.3,11.4,6.6
	c4.6,1.3,9.8,1.4,15.8,0.3c6.1-1.1,11.4-3.1,16-6c4.6-2.9,8.4-6.5,11.4-10.7c3.1-4.2,5.3-9,6.9-14.3c1.5-5.3,2.3-10.9,2.3-16.9V6.2
	L882.1,0v107.9c0,11.2-1.7,21.7-5,31.6c-3.3,9.9-8.1,18.7-14.2,26.4c-6.2,7.7-13.7,14.2-22.4,19.5
	C831.8,190.6,822,194.2,811.1,196.2z"/>
<path class="st5" d="M896.9,53.9l31.3-5.7v14.8l2-0.4c3.1-5.7,7.8-11,14.2-15.9c6.4-4.8,14.4-8.1,23.9-9.8c8-1.4,15.6-1.2,22.8,0.8
	c7.2,2,13.6,5.3,19.1,10.1c5.5,4.8,9.9,10.9,13.1,18.3c3.2,7.4,4.8,15.9,4.8,25.4c0,9.5-1.6,18.6-4.8,27.2
	c-3.2,8.6-7.6,16.3-13.1,23c-5.5,6.8-11.9,12.4-19.1,17c-7.2,4.6-14.8,7.6-22.8,9c-9.5,1.7-17.5,1.3-23.9-1.2
	c-6.4-2.5-11.2-6.1-14.2-10.7l-2,0.4l2,17.2v51.3l-33.3,6V53.9z M961.5,138.7c4.4-0.8,8.6-2.4,12.6-4.8c4-2.4,7.5-5.4,10.6-8.9
	c3.1-3.6,5.5-7.7,7.4-12.4c1.9-4.7,2.8-9.7,2.8-15c0-5.3-0.9-10-2.8-14c-1.9-4-4.3-7.2-7.4-9.7c-3.1-2.5-6.6-4.2-10.6-5.1
	c-4-0.9-8.2-1-12.6-0.2c-4.4,0.8-8.6,2.4-12.6,4.7c-4,2.3-7.5,5.2-10.6,8.8c-3.1,3.6-5.5,7.7-7.4,12.4c-1.9,4.7-2.8,9.8-2.8,15.3
	c0,5.5,0.9,10.3,2.8,14.3c1.9,4,4.3,7.2,7.4,9.7s6.6,4.1,10.6,5C952.9,139.4,957.1,139.5,961.5,138.7z"/>
</svg>
