<?xml version="1.0" encoding="utf-8"?>
<!-- Generator: Adobe Illustrator 19.1.0, SVG Export Plug-In . SVG Version: 6.00 Build 0)  -->
<svg version="1.1" id="Layer_1" xmlns="http://www.w3.org/2000/svg" xmlns:xlink="http://www.w3.org/1999/xlink" x="0px" y="0px"
	 viewBox="0 0 318 202" style="enable-background:new 0 0 318 202;" xml:space="preserve">
<g>
	<g>
		<path d="M101,81v40c0,0,38.8-0.1,54.6-0.1C147,146.9,133.7,161,101,161c-33.1,0-59-26.9-59-60c0-33.1,25.9-60,59-60
			c17.5,0,28.8,6.2,39.2,14.7c8.3-8.3,7.6-9.5,28.8-29.5C151,10,127.2,0,101,0C45.2,0,0,45.2,0,101c0,55.8,45.2,101,101,101
			c83.4,0,103.8-72.6,97-121C178.3,81,101,81,101,81z M283,83V48h-25v35h-36v25h36v36h25v-36h35V83H283z"/>
	</g>
</g>
</svg>
